<?xml version="1.0" encoding="UTF-8"?>
<svg width="292px" height="73px" viewBox="0 0 292 73" version="1.1" xmlns="http://www.w3.org/2000/svg" xmlns:xlink="http://www.w3.org/1999/xlink">
    <!-- Generator: Sketch 53 (72520) - https://sketchapp.com -->
    <title>logo_hero</title>
    <desc>Created with Sketch.</desc>
    <defs>
        <polygon id="path-1" points="0 0.300826418 34.9738595 0.300826418 34.9738595 47.5268227 0 47.5268227"></polygon>
        <polygon id="path-3" points="0 65 195 65 195 0 0 0"></polygon>
    </defs>
    <g id="final" stroke="none" stroke-width="1" fill="none" fill-rule="evenodd">
        <g id="-Large-Desktop-(1200px-or-more)" transform="translate(-150.000000, -191.000000)">
            <g id="Hero" transform="translate(0.000000, -17.000000)">
                <g id="logo_hero" transform="translate(150.000000, 206.000000)">
                    <g id="Group-13-Copy" transform="translate(0.000000, 10.000000)">
                        <path d="M129.932068,41.6156002 C129.76356,40.3469274 129.719342,39.04679 129.403839,37.8149247 C128.149593,32.9094294 125.175018,29.4857344 120.074978,28.5530788 C115.066363,27.6370459 110.684571,29.0387008 107.681314,33.4003945 C105.40945,36.7000124 104.945756,40.405107 105.541508,44.3049254 C106.621868,51.3820657 113.233695,55.9337338 120.260815,54.4020651 C126.071335,53.1351733 129.871716,48.0717617 129.932068,41.6156002 M141.881757,64.1168813 L129.947006,64.1168813 L129.947006,58.1979912 C129.492275,58.572597 129.272379,58.7115158 129.105664,58.8967408 C124.410162,64.1346914 118.374965,65.529816 111.652593,64.833441 C101.762638,63.8087666 94.4463066,55.6523342 93.2530107,45.7362638 C92.2228445,37.1713864 94.2538973,29.6466189 100.906955,23.756225 C105.588116,19.6124082 111.243872,18.0011878 117.397383,18.0000005 C124.623485,17.9988131 130.986733,20.2345744 135.97085,25.6215362 C139.947507,29.9185198 141.82021,35.1255995 141.92478,40.8859798 C142.062813,48.3982802 141.968401,55.9147363 141.969596,63.4294114 C141.969596,63.6187922 141.92239,63.8081729 141.881757,64.1168813" id="Fill-1" fill="#FFFFFF"></path>
                        <path d="M84.823385,64 L72.9843496,64 L72.9843496,62.3744032 C72.9837545,54.2452363 72.9908961,46.1160694 72.9795886,37.9863109 C72.9766129,35.7395801 72.5808476,33.5792164 71.3001155,31.6625739 C68.9404023,28.1309827 64.6685179,27.0851111 60.6209997,28.1830397 C56.4229121,29.3217856 54.0542719,32.7114033 54.0268956,37.4379382 C53.9798799,45.6653035 54.0120172,53.8932603 54.0102318,62.1206256 L54.0102318,63.9585911 L42.0938288,63.9585911 C42.0706185,63.4344722 42.0307444,62.95472 42.0301493,62.4761509 C42.0265785,54.2978848 42.1307272,46.1178441 42.002773,37.9407611 C41.8301837,26.8940384 49.731801,19.1274955 60.6894403,18.1401881 C66.2831212,17.6361821 71.6518407,18.4270929 76.4837478,21.5617498 C81.5602557,24.8549438 84.5537885,29.5826619 84.7829158,35.4946757 C85.1429729,44.7927579 84.9394365,54.1127277 84.9691933,63.422641 C84.9697884,63.5622483 84.9013478,63.7006725 84.823385,64" id="Fill-3" fill="#FFFFFF"></path>
                        <path d="M186.89704,17 C189.819158,19.8205629 192.38302,22.2941088 195,24.8198874 C189.715281,30.163227 184.501388,35.4339212 179.288674,40.7034146 C184.671958,46.1740338 189.874047,51.459137 194.94334,56.6109568 C192.285635,59.4459287 189.829191,62.067167 187.447114,64.6091557 C182.171838,59.3270544 176.958535,54.1061914 171.591187,48.7316323 C166.39736,54.1638274 161.238946,59.5593996 156.037447,65 C153.285899,62.0743715 150.845391,59.4801501 148.430852,56.9123452 C153.428729,51.8349719 158.629048,46.5516698 163.863599,41.2329456 C158.432509,35.7130957 153.20327,30.396773 148,25.1068668 C150.752728,22.3415385 153.301244,19.7809381 155.826152,17.2443527 C160.927907,22.4195872 166.136489,27.7034897 171.232931,32.8733208 C176.588475,27.4465291 181.828337,22.1368105 186.89704,17" id="Fill-5" fill="#FFFFFF"></path>
                        <g id="Group-9" transform="translate(0.000000, 17.000000)">
                            <mask id="mask-2" fill="white">
                                <use xlink:href="#path-1"></use>
                            </mask>
                            <g id="Clip-8"></g>
                            <path d="M34.1079616,7.56780651 C31.8387815,9.65934946 29.6376347,11.6896414 27.3798939,13.7709758 C24.9963217,11.5881568 22.3966084,9.90855713 19.2381795,9.77764804 C17.6318721,9.71039199 15.8238733,10.1115263 14.4084203,10.8645538 C12.2915625,11.9910926 12.192824,14.4951793 14.1085923,15.9640033 C15.3915912,16.9482235 16.9346818,17.633995 18.4326175,18.2909425 C21.5422792,19.6546789 24.8066714,20.7037531 27.8139822,22.2548457 C34.018254,25.4531109 36.4572162,31.9391159 34.0736439,38.2485738 C32.9206909,41.3009174 30.6948595,43.4254879 27.8988733,44.9405505 C20.0070155,49.2161134 8.78273222,48.0781651 1.880668,42.3577982 C1.26897076,41.8509758 0.71868406,41.2702919 -0.000180619266,40.5911259 C2.3502781,38.4143119 4.61283544,36.319166 6.94703842,34.1573645 C7.7802953,34.8353294 8.55214163,35.5265054 9.38660264,36.1300083 C12.21209,38.1765138 15.3386095,38.9583653 18.7571302,38.0696247 C20.4362873,37.6324604 21.7873194,36.6890742 22.0901577,34.8095079 C22.3785464,33.0164137 21.3658744,31.8058048 19.9696875,31.0071393 C18.2839077,30.0439366 16.4512242,29.3425521 14.7196875,28.454412 C11.968254,27.044437 9.06630447,25.8326272 6.54907397,24.0797665 C-0.657032683,19.0625855 -0.283752867,6.8357965 8.10119553,2.43472894 C16.1899283,-1.81140951 28.6406164,0.472894078 34.1079616,7.56780651" id="Fill-7" fill="#FFFFFF" mask="url(#mask-2)"></path>
                        </g>
                        <mask id="mask-4" fill="white">
                            <use xlink:href="#path-3"></use>
                        </mask>
                        <g id="Clip-11"></g>
                        <polygon id="Fill-10" fill="#FFFFFF" mask="url(#mask-4)" points="102 9 132 9 132 0 102 0"></polygon>
                    </g>
                    <text id="next-level-eatery" font-family="Georgia-Italic, Georgia" font-size="20" font-style="italic" font-weight="normal" fill="#FFFFFF">
                        <tspan x="146" y="18">next level eatery</tspan>
                    </text>
                </g>
            </g>
        </g>
    </g>
</svg>